<?xml version="1.0" standalone="no"?>
<!DOCTYPE svg PUBLIC "-//W3C//DTD SVG 20010904//EN"
 "http://www.w3.org/TR/2001/REC-SVG-20010904/DTD/svg10.dtd">
<svg version="1.0" xmlns="http://www.w3.org/2000/svg"
 width="512.000000pt" height="512.000000pt" viewBox="0 0 512.000000 512.000000"
 preserveAspectRatio="xMidYMid meet">

<g transform="translate(0.000000,512.000000) scale(0.100000,-0.100000)"
fill="#000000" stroke="none">
<path d="M2557 5045 c-14 -10 -17 -20 -12 -36 7 -22 7 -22 -9 -6 -20 20 -46
22 -46 5 0 -9 -3 -9 -9 1 -8 12 -16 12 -55 0 -28 -8 -46 -19 -47 -29 0 -10 -2
-11 -6 -2 -6 15 -54 36 -106 46 -21 4 -45 10 -53 13 -8 3 -14 0 -14 -6 0 -6 7
-11 15 -11 8 0 15 -6 15 -14 0 -7 19 -21 43 -30 45 -17 110 -65 90 -66 -13 0
-141 48 -158 60 -19 13 -104 3 -118 -15 -6 -6 -10 -6 -14 3 -2 6 -9 9 -14 6
-6 -3 -16 0 -24 6 -18 15 -148 5 -207 -16 -21 -7 -38 -9 -38 -5 0 8 -89 3 -99
-5 -1 -1 1 -8 5 -15 11 -18 14 -59 5 -59 -4 0 -11 4 -16 9 -9 9 -51 15 -84 12
-11 -1 -11 -5 2 -19 10 -10 17 -27 17 -36 0 -15 -5 -17 -27 -11 -35 8 -35 9
-35 40 l0 26 -42 -25 c-42 -25 -60 -56 -32 -56 9 0 16 3 16 8 0 4 9 13 20 19
16 11 18 10 14 -2 -5 -11 7 -21 40 -36 25 -11 46 -24 46 -29 0 -16 -14 -12
-49 14 -30 22 -39 24 -109 19 -79 -6 -112 -16 -112 -34 0 -13 100 0 119 15 11
8 13 8 7 -1 -4 -8 -2 -13 7 -13 8 0 20 -7 27 -15 16 -19 34 -19 27 0 -5 12 -2
12 18 3 27 -12 35 -34 10 -24 -13 4 -13 2 -5 -14 7 -12 7 -21 0 -25 -5 -3 -10
1 -10 9 0 9 -4 16 -10 16 -5 0 -10 -9 -10 -20 0 -23 -15 -27 -24 -5 -3 8 -12
15 -20 15 -7 0 -16 9 -19 20 -3 11 -10 20 -17 20 -6 0 -8 -4 -5 -10 7 -11 -8
-14 -19 -3 -14 14 -57 13 -87 -3 -23 -11 -28 -18 -19 -24 9 -5 4 -12 -16 -21
-44 -22 -42 -39 4 -39 34 0 40 3 44 25 3 14 1 25 -3 25 -5 0 -9 4 -9 9 0 6 18
9 40 8 46 -1 51 -12 15 -29 -29 -13 -34 -38 -7 -38 13 -1 11 -4 -7 -14 -14 -8
-31 -12 -38 -9 -7 3 -17 -6 -23 -21 -12 -32 -50 -37 -50 -6 0 12 -7 20 -16 20
-22 0 -67 -49 -60 -66 3 -7 -9 -28 -27 -47 -44 -48 -74 -89 -89 -123 -7 -16
-23 -42 -35 -57 -13 -16 -21 -33 -17 -38 3 -5 -5 -9 -18 -9 -38 -1 -55 -50
-54 -157 1 -81 4 -94 21 -107 11 -8 29 -22 40 -31 20 -16 19 -16 -5 -10 -14 3
-32 9 -40 11 -19 6 -20 1 -10 -196 7 -134 12 -163 33 -210 14 -30 30 -80 36
-110 26 -133 32 -157 41 -186 6 -17 24 -41 40 -53 27 -20 29 -24 15 -37 -24
-24 -19 -63 9 -74 34 -13 54 -46 66 -111 52 -276 222 -423 470 -406 158 10
275 98 339 252 26 62 33 94 38 178 3 56 12 115 20 130 l14 28 -45 -6 c-31 -5
-46 -4 -46 4 0 6 13 11 29 11 45 0 64 10 50 26 -6 8 -8 21 -5 30 7 18 -14 136
-26 144 -4 3 -12 18 -17 33 -6 16 -16 25 -22 21 -8 -4 -8 -9 0 -17 27 -27 7
-26 -24 2 -30 26 -56 36 -86 33 -3 -1 -39 -2 -80 -3 -67 -1 -177 -28 -204 -49
-5 -4 -38 -8 -72 -8 -52 -1 -63 2 -63 15 0 12 -9 8 -32 -16 -18 -18 -48 -41
-69 -51 -20 -11 -39 -26 -42 -35 -7 -17 8 -21 18 -5 8 13 72 40 94 40 9 0 -4
-11 -28 -25 -23 -14 -48 -25 -55 -25 -6 0 -45 -25 -86 -55 -41 -30 -81 -55
-87 -55 -15 0 -17 17 -3 22 6 2 6 25 -2 65 -11 62 -1 142 34 264 6 20 8 41 5
46 -4 6 3 33 13 62 11 28 20 64 20 79 0 24 10 35 63 69 124 79 123 79 160 64
17 -7 41 -13 52 -13 11 1 23 -4 27 -11 5 -8 21 -5 60 11 29 13 84 35 122 49
62 24 70 25 81 10 6 -8 23 -19 38 -22 22 -6 26 -4 21 9 -5 12 -2 15 10 10 9
-3 16 -11 16 -18 0 -11 34 -29 75 -39 26 -7 90 14 91 31 1 6 2 18 3 26 0 7 13
22 27 31 26 17 27 17 21 -4 -6 -24 10 -38 26 -22 6 6 19 11 29 11 11 0 35 16
55 35 20 19 39 32 44 29 5 -2 22 2 39 11 19 10 42 14 59 10 15 -3 46 2 71 10
46 17 53 17 350 0 41 -3 90 -9 109 -15 19 -5 45 -7 58 -4 20 5 23 11 19 30 -6
22 -3 24 30 24 31 0 35 -2 24 -15 -10 -12 -10 -15 2 -15 17 0 77 -54 80 -72 0
-7 2 -17 2 -23 1 -5 6 -16 11 -24 5 -10 5 -16 -2 -18 -15 -5 19 -60 75 -121
23 -26 58 -70 77 -98 19 -29 41 -54 49 -57 25 -10 53 -78 59 -144 l7 -62 -69
-21 c-81 -24 -101 -25 -101 -5 0 8 -11 25 -25 37 -14 12 -25 27 -25 34 0 43
-113 124 -219 156 -61 18 -77 20 -106 10 -18 -7 -70 -15 -116 -18 -46 -3 -104
-12 -128 -20 -25 -8 -56 -14 -71 -14 -14 0 -35 -6 -46 -14 -11 -8 -36 -17 -56
-21 -44 -8 -106 -57 -110 -88 -2 -14 -9 -21 -20 -19 -11 2 -24 -11 -38 -38
l-21 -40 21 -22 c11 -13 23 -33 26 -45 3 -12 15 -24 27 -26 21 -3 21 -4 -3
-15 -22 -10 -20 -11 28 -11 28 -1 52 -5 52 -11 0 -5 -19 -10 -42 -10 -59 0
-72 -10 -63 -49 4 -19 3 -31 -4 -31 -6 0 -4 -12 5 -27 7 -16 14 -35 14 -43 0
-26 77 -171 108 -204 16 -17 33 -41 37 -53 4 -14 17 -25 33 -29 49 -10 73 -28
88 -62 18 -44 18 -101 -1 -126 -12 -16 -18 -17 -46 -7 -69 24 -112 14 -184
-44 -52 -41 -72 -48 -83 -29 -7 13 -12 13 -39 -2 -30 -18 -31 -18 -82 15 -44
29 -58 33 -97 28 -44 -5 -88 -32 -79 -48 3 -4 29 -15 58 -25 70 -22 76 -27 47
-34 -19 -5 -25 -12 -24 -31 1 -13 -3 -27 -9 -30 -5 -4 0 -10 12 -14 15 -4 21
-15 21 -36 0 -16 -5 -29 -11 -29 -6 0 -9 6 -6 14 4 10 0 12 -13 9 -32 -8 -37
-55 -11 -87 19 -22 6 -32 -23 -18 -20 9 -25 8 -30 -4 -3 -9 -11 -12 -17 -9 -5
4 -25 7 -43 7 -29 0 -33 3 -28 21 4 16 2 19 -11 14 -12 -5 -17 -1 -17 13 0 16
-5 18 -37 13 -31 -5 -35 -4 -30 10 8 21 -10 32 -27 18 -7 -6 -24 -10 -37 -9
-24 3 -24 2 -21 -82 4 -102 20 -138 55 -118 31 18 67 21 165 13 34 -3 62 -3
62 0 0 3 -7 19 -15 35 -14 27 -14 30 5 40 14 8 26 8 41 -1 16 -8 27 -8 45 2
17 9 34 10 56 3 18 -5 64 -7 102 -4 66 5 69 4 79 -20 l11 -25 4 28 c3 22 8 27
30 27 15 0 44 3 64 6 33 6 39 4 47 -17 9 -23 10 -23 10 7 1 25 7 34 31 44 35
14 60 8 60 -17 0 -15 1 -15 13 1 10 14 29 19 71 21 55 2 57 1 37 -14 -12 -9
-25 -30 -29 -46 -11 -38 -22 -40 -54 -10 -30 27 -45 19 -39 -22 2 -17 -5 -26
-24 -33 -15 -6 -30 -8 -35 -5 -5 3 -12 0 -15 -6 -5 -7 18 -9 78 -6 72 4 94 9
140 36 43 25 66 31 111 31 l56 0 0 -63 c0 -35 7 -86 15 -115 9 -28 15 -54 14
-59 -1 -4 -1 -15 0 -23 1 -12 5 -11 16 4 17 23 20 21 29 -19 6 -23 5 -27 -5
-18 -13 13 -42 6 -33 -9 3 -5 -3 -4 -15 4 -18 11 -22 10 -35 -7 -17 -23 -11
-39 11 -31 12 5 14 1 10 -14 -3 -11 -1 -18 4 -14 5 3 9 -2 9 -10 0 -16 -9 -19
-46 -17 -14 1 -29 -11 -48 -39 -15 -22 -31 -38 -36 -35 -6 4 -10 -1 -10 -9 0
-9 -5 -16 -11 -16 -6 0 -23 -9 -38 -19 -15 -11 -39 -18 -54 -17 -15 2 -30 0
-32 -4 -3 -5 -67 -9 -142 -9 -82 -1 -142 -6 -150 -13 -9 -8 -17 -7 -29 3 -14
11 -18 11 -29 -4 -7 -9 -20 -17 -29 -17 -9 0 -19 -7 -22 -15 -4 -8 -10 -15
-15 -15 -4 0 -6 7 -3 15 4 8 1 15 -5 15 -6 0 -11 -7 -11 -15 0 -8 -14 -17 -35
-21 -19 -3 -33 -10 -30 -14 6 -9 -18 -20 -43 -20 -9 0 -30 7 -46 15 -15 8 -32
12 -37 9 -12 -7 -51 15 -67 38 -7 10 -19 18 -25 18 -14 0 -47 35 -47 50 0 10
-41 35 -52 32 -5 -1 -8 6 -8 17 0 10 -7 24 -15 31 -14 11 -14 10 -5 -14 17
-45 -10 -19 -32 30 -20 46 -53 74 -61 51 -9 -28 -26 33 -32 118 -9 116 -25
137 -26 33 0 -16 -4 -28 -8 -28 -14 0 -19 38 -11 77 10 41 6 53 -12 35 -21
-21 -36 -13 -44 21 -9 37 -6 60 7 65 11 5 1 22 -12 22 -6 0 -7 -4 -4 -10 3 -5
-1 -10 -10 -10 -9 0 -13 4 -10 10 7 12 -12 50 -25 50 -5 0 -14 -10 -21 -22
-10 -18 -9 -20 6 -14 12 4 16 2 12 -8 -3 -8 1 -20 9 -27 10 -8 12 -15 4 -23
-7 -7 -15 -4 -26 12 -8 12 -21 22 -27 22 -7 0 -13 9 -13 20 0 11 5 20 10 20 6
0 5 5 -2 12 -15 15 -16 42 0 32 7 -4 8 -3 4 5 -4 6 -11 9 -16 6 -5 -3 -20 14
-34 37 -22 38 -49 135 -78 283 -5 28 -13 54 -17 58 -8 8 30 -228 54 -328 18
-81 84 -239 136 -330 46 -79 138 -194 156 -194 7 -1 26 -21 41 -46 24 -39 220
-225 236 -225 4 0 49 -21 101 -46 129 -62 196 -118 212 -175 16 -59 18 -71 8
-92 -5 -13 0 -26 17 -45 13 -15 40 -49 59 -75 26 -37 50 -56 107 -83 l73 -35
-3 -52 c-3 -48 -5 -52 -30 -55 -16 -2 -28 -9 -28 -15 1 -15 76 -71 146 -108
106 -55 190 -20 336 143 37 40 85 98 106 128 22 30 50 67 61 82 12 14 21 31
21 37 0 6 4 11 9 11 5 0 18 15 29 32 22 35 13 53 -20 42 -16 -5 -18 2 -18 46
0 46 3 52 28 62 21 9 23 12 10 15 -23 6 -23 19 -1 31 9 5 17 22 19 38 2 15 10
32 19 36 8 5 15 20 15 33 0 30 65 172 81 177 8 3 13 34 15 89 5 137 10 175 32
205 33 47 60 156 100 394 34 206 39 226 60 235 25 11 29 25 7 25 -11 0 -15 13
-16 53 0 28 -1 72 -1 95 0 37 5 49 36 81 41 42 50 91 17 91 -20 0 -51 -25 -51
-41 0 -5 -3 -9 -7 -9 -5 0 -9 40 -10 89 l-2 90 30 -13 c55 -23 72 -44 66 -81
-6 -37 6 -55 33 -48 22 6 30 32 30 98 0 77 -8 95 -40 95 -15 0 -44 11 -64 25
-31 21 -36 22 -36 7 0 -9 -5 -24 -11 -32 -11 -15 -6 86 7 171 6 38 39 64 68
53 13 -5 13 -11 0 -46 -16 -47 -19 -77 -5 -62 5 5 15 38 22 74 7 36 19 72 26
81 18 21 16 39 -3 39 -12 0 -14 5 -8 18 14 28 10 388 -5 467 -28 148 -135 371
-209 438 -17 15 -18 22 -8 58 10 38 8 45 -34 127 -28 53 -62 101 -90 126 -25
23 -74 71 -110 107 -36 36 -86 80 -111 97 -52 35 -99 86 -99 108 0 13 -37 34
-61 34 -5 0 -9 -12 -10 -27 0 -16 -3 -22 -6 -15 -2 6 -11 12 -19 12 -8 0 -14
5 -14 11 0 6 -6 9 -13 6 -8 -3 -37 19 -67 51 -50 52 -95 82 -124 82 -6 0 -19
-7 -29 -15z m18 -15 c-3 -5 -11 -10 -16 -10 -6 0 -7 5 -4 10 3 6 11 10 16 10
6 0 7 -4 4 -10z m-830 -132 c11 -25 14 -28 15 -13 0 18 5 20 35 17 19 -2 35
-8 35 -14 0 -5 4 -7 9 -4 12 8 1 -76 -11 -89 -6 -6 -9 4 -8 30 3 56 2 61 -12
47 -8 -8 -15 -9 -25 -1 -10 9 -13 6 -13 -15 0 -14 4 -26 9 -26 5 0 11 -7 15
-15 11 -29 -13 -14 -43 27 -17 23 -31 52 -31 65 0 32 8 29 25 -9z m-28 -70
c-3 -8 -6 -5 -6 6 -1 11 2 17 5 13 3 -3 4 -12 1 -19z m380 -20 c-3 -7 -5 -2
-5 12 0 14 2 19 5 13 2 -7 2 -19 0 -25z m-422 -4 c8 -3 15 -1 15 6 0 20 25
-12 38 -49 14 -41 14 -41 4 -41 -5 0 -17 15 -27 34 -10 19 -32 41 -49 50 -28
15 -18 15 19 0z m445 -71 c-11 -17 -11 -17 -6 0 3 10 7 26 7 35 1 15 2 15 6 0
2 -10 -1 -25 -7 -35z m-350 -59 c0 -8 5 -12 10 -9 6 3 10 -3 10 -14 0 -27 -4
-26 -34 6 -18 19 -22 29 -14 34 15 10 28 2 28 -17z m-440 1 c-7 -9 -15 -13
-17 -11 -7 7 7 26 19 26 6 0 6 -6 -2 -15z m102 -92 c-2 -27 -9 -53 -14 -60 -5
-7 -5 -12 1 -15 5 -1 3 -9 -5 -16 -12 -11 -14 -10 -14 6 0 10 -5 23 -12 30 -8
8 -8 15 1 26 7 8 12 23 11 33 -4 34 0 43 19 43 16 0 18 -6 13 -47z m-77 27 c3
-5 -1 -10 -10 -10 -9 0 -13 5 -10 10 3 6 8 10 10 10 2 0 7 -4 10 -10z m140
-49 c-4 -49 -4 -49 -20 -27 -8 11 -15 32 -15 47 0 22 4 26 19 22 16 -4 19 -12
16 -42z m-191 -16 c4 -13 10 -14 26 -5 16 9 20 8 20 -5 0 -8 -6 -16 -12 -17
-37 -4 -44 -3 -55 5 -7 5 -13 16 -13 23 0 19 26 18 34 -1z m465 -105 c1 -13 0
-13 -9 0 -5 8 -9 24 -9 35 l0 20 9 -20 c5 -11 9 -27 9 -35z m-580 21 c15 -12
22 -24 18 -35 -3 -8 -3 -15 1 -15 19 3 25 -2 12 -11 -10 -6 -20 -4 -32 7 -20
18 -18 29 -21 -97 -2 -46 -5 -55 -22 -59 -11 -2 -23 -8 -26 -14 -4 -5 -11 -2
-16 9 -11 21 8 70 21 57 4 -4 4 0 0 10 -8 22 4 70 16 62 8 -5 12 3 24 58 5 19
3 26 -4 22 -5 -3 -10 1 -10 9 0 21 9 20 39 -3z m138 -7 c-9 -9 -28 6 -21 18 4
6 10 6 17 -1 6 -6 8 -13 4 -17z m-59 4 c-5 -16 -48 -24 -48 -9 0 8 17 16 43
20 5 0 7 -5 5 -11z m159 -20 c-3 -7 -5 -2 -5 12 0 14 2 19 5 13 2 -7 2 -19 0
-25z m-130 -10 c-3 -8 -6 -5 -6 6 -1 11 2 17 5 13 3 -3 4 -12 1 -19z m-207
-184 c0 -8 -4 -12 -10 -9 -5 3 -10 10 -10 16 0 5 5 9 10 9 6 0 10 -7 10 -16z
m530 -26 c0 -18 -17 -14 -26 7 -11 22 -10 23 7 12 11 -7 19 -15 19 -19z m-42
-3 c-3 -3 -9 2 -12 12 -6 14 -5 15 5 6 7 -7 10 -15 7 -18z m-550 -60 c15 -14
27 -36 27 -50 1 -31 -13 -20 -43 34 -27 47 -22 51 16 16z m77 -55 c8 -13 -5
-13 -25 0 -13 8 -13 10 2 10 9 0 20 -4 23 -10z m-65 -50 c0 -5 -4 -10 -10 -10
-5 0 -10 5 -10 10 0 6 5 10 10 10 6 0 10 -4 10 -10z m80 -37 c0 -17 -21 -17
-46 1 -18 14 -17 15 14 14 20 -1 32 -6 32 -15z m1935 -512 c3 -5 2 -12 -2 -14
-12 -8 -63 4 -63 14 0 12 57 12 65 0z m87 -28 c45 -40 2 -76 -66 -53 -48 16
-53 28 -17 41 17 6 31 15 31 20 0 15 32 10 52 -8z m-417 -22 c-30 -12 -111
-24 -103 -16 8 9 70 22 103 23 l20 1 -20 -8z m287 -59 c125 -61 164 -140 156
-316 -4 -85 -9 -110 -33 -156 -45 -91 -91 -139 -164 -174 -61 -29 -74 -31
-171 -31 -94 0 -111 3 -165 28 -73 34 -106 64 -157 141 -95 146 -102 310 -17
407 l30 34 -25 -40 c-28 -44 -45 -110 -46 -169 0 -31 3 -37 16 -32 10 4 25 -1
36 -10 12 -11 38 -18 76 -20 31 -1 104 -5 162 -9 95 -6 109 -4 145 14 21 12
48 21 60 21 34 0 51 16 36 33 -9 12 -19 13 -44 6 -45 -13 -53 -11 -54 9 -2 24
37 50 83 56 22 2 41 5 44 6 3 1 12 2 21 1 9 -1 19 5 22 14 4 8 15 15 26 15 11
0 23 5 26 10 3 6 -1 10 -10 10 -9 0 -49 16 -88 36 -97 49 -166 65 -200 47 -18
-9 -28 -10 -32 -2 -4 6 -19 7 -35 4 -32 -7 -48 9 -30 30 10 12 9 16 -4 20 -53
17 -51 16 -36 25 8 6 26 10 40 10 14 0 32 5 40 11 9 6 59 9 120 7 96 -3 112
-6 172 -36z m-505 -19 c-9 -9 -20 -13 -24 -9 -4 4 1 14 11 22 25 18 35 8 13
-13z m972 13 c14 -17 0 -29 -23 -20 -12 4 -16 0 -16 -15 0 -14 -6 -21 -19 -21
-32 0 -55 -12 -40 -20 8 -5 15 -48 20 -114 4 -58 10 -120 14 -137 9 -41 -4
-221 -16 -213 -5 3 -6 -2 -3 -10 3 -8 0 -41 -7 -73 -7 -32 -12 -61 -11 -65 1
-5 -3 -8 -9 -8 -6 0 -9 -7 -5 -15 3 -8 1 -26 -3 -38 -8 -20 -15 -23 -40 -19
-23 3 -31 0 -31 -11 0 -9 -9 -15 -22 -15 -13 0 -57 -2 -98 -4 -48 -3 -91 1
-120 10 -25 7 -79 15 -121 17 -56 2 -90 10 -125 28 -27 13 -73 27 -103 30 -30
4 -59 11 -65 17 -7 7 0 8 24 3 19 -5 80 -8 135 -8 83 0 112 5 164 25 166 65
261 225 261 440 0 73 3 83 25 105 13 14 31 25 39 25 11 0 14 10 11 44 l-5 44
58 15 c74 19 117 20 131 3z m-1796 -23 c-7 -2 -19 -2 -25 0 -7 3 -2 5 12 5 14
0 19 -2 13 -5z m64 -9 c-3 -3 -12 -4 -19 -1 -8 3 -5 6 6 6 11 1 17 -2 13 -5z
m40 -10 c-3 -3 -12 -4 -19 -1 -8 3 -5 6 6 6 11 1 17 -2 13 -5z m-216 -25 c58
-18 55 -34 -10 -58 -32 -12 -73 -31 -91 -44 -61 -40 -88 -118 -41 -117 21 1
41 17 70 59 33 47 91 71 174 71 74 0 90 -14 26 -25 -93 -16 -217 -81 -234
-124 -8 -21 3 -27 25 -13 11 7 27 12 37 12 9 0 31 14 49 31 31 30 54 32 54 5
0 -7 13 -25 29 -41 41 -39 93 -31 138 21 30 34 53 38 53 9 0 -8 -10 -21 -22
-31 -22 -15 -19 -16 61 -10 46 3 86 8 89 11 3 3 0 26 -5 52 -10 42 -10 46 3
29 21 -29 27 -77 22 -171 -6 -106 -47 -195 -124 -272 -75 -72 -142 -97 -251
-90 -190 11 -338 147 -374 342 -23 126 5 224 84 289 84 69 157 89 238 65z
m241 -21 l47 -21 -21 -19 c-23 -19 -58 -24 -58 -8 0 6 -13 10 -29 10 -23 0
-33 7 -45 32 -9 17 -16 33 -16 36 0 9 76 -10 122 -30z m1388 28 c0 -2 -7 -6
-15 -10 -8 -3 -15 -1 -15 4 0 6 7 10 15 10 8 0 15 -2 15 -4z m-810 -40 c0 -15
-29 -30 -39 -20 -3 3 3 12 13 20 24 17 26 17 26 0z m284 -75 c22 -19 11 -31
-21 -22 -29 8 -39 37 -20 59 9 11 12 11 18 -5 4 -10 14 -25 23 -32z m226 39
c13 -8 13 -11 0 -23 -8 -7 -27 -18 -42 -25 -24 -10 -26 -9 -24 11 5 45 31 59
66 37z m-1720 -80 c0 -5 -9 -10 -20 -10 -11 0 -20 5 -20 10 0 6 9 10 20 10 11
0 20 -4 20 -10z m1220 -234 c0 -6 9 -22 20 -36 24 -30 26 -48 4 -29 -18 15
-54 83 -54 101 1 15 30 -20 30 -36z m75 -126 c3 -5 1 -10 -4 -10 -6 0 -11 5
-11 10 0 6 2 10 4 10 3 0 8 -4 11 -10z m195 -264 c0 -4 10 -16 24 -27 35 -27
34 -50 -1 -48 -16 1 -32 0 -38 -2 -5 -1 -20 1 -33 5 -19 6 -22 13 -17 36 3 16
2 31 -4 35 -8 4 -8 12 0 26 10 20 11 20 41 1 16 -11 29 -22 28 -26z m-40 -230
c0 -3 -4 -8 -10 -11 -5 -3 -10 -1 -10 4 0 6 5 11 10 11 6 0 10 -2 10 -4z
m-298 -33 c10 -9 18 -19 18 -23 0 -9 -48 -18 -127 -26 -48 -5 -51 -4 -46 14 3
13 21 26 47 35 56 20 86 20 108 0z m-178 -38 c-4 -8 -8 -15 -10 -15 -2 0 -4 7
-4 15 0 8 4 15 10 15 5 0 7 -7 4 -15z m-54 -26 c0 -6 -4 -7 -10 -4 -5 3 -10
11 -10 16 0 6 5 7 10 4 6 -3 10 -11 10 -16z m-650 -138 c0 -5 3 -18 7 -28 6
-16 5 -16 -10 -4 -19 15 -23 41 -7 41 6 0 10 -4 10 -9z m258 -356 c-3 -3 -9 2
-12 12 -6 14 -5 15 5 6 7 -7 10 -15 7 -18z"/>
<path d="M2785 3406 c-77 -12 -76 -27 3 -28 86 0 109 -8 183 -63 78 -58 85
-61 109 -45 13 8 12 12 -8 25 -12 9 -20 20 -17 24 5 9 -26 39 -67 64 -34 21
-44 22 -28 2 11 -13 8 -13 -19 -4 -17 6 -29 14 -26 19 3 4 -5 10 -18 14 -26 7
-21 7 -112 -8z"/>
<path d="M1258 3093 c-3 -12 -1 -43 5 -70 l12 -48 3 37 c2 20 -1 51 -6 70 -7
29 -9 30 -14 11z"/>
<path d="M1520 3050 c0 -5 12 -10 28 -9 24 0 25 1 7 9 -27 12 -35 12 -35 0z"/>
<path d="M1896 3043 c-4 -4 -26 -8 -49 -9 -73 -3 -147 -16 -147 -26 0 -5 -4
-7 -9 -3 -5 3 -13 0 -16 -6 -5 -8 9 -9 48 -4 31 4 63 3 72 -2 17 -10 12 -13
-112 -55 -50 -17 -40 -32 15 -24 68 9 242 102 242 131 0 8 -35 6 -44 -2z"/>
<path d="M1480 4749 c0 -5 5 -7 10 -4 6 3 10 8 10 11 0 2 -4 4 -10 4 -5 0 -10
-5 -10 -11z"/>
<path d="M3602 3307 l-30 -32 18 -73 c10 -41 26 -91 34 -113 9 -22 16 -54 16
-71 0 -51 17 -20 29 53 21 123 9 241 -26 262 -6 4 -24 -8 -41 -26z"/>
<path d="M2101 3133 c-11 -22 -44 -183 -38 -189 2 -2 12 25 21 60 10 36 26 80
36 99 18 33 17 47 -1 47 -5 0 -12 -8 -18 -17z"/>
<path d="M1075 3063 c7 -39 39 -129 55 -153 14 -22 20 -9 26 61 l6 64 -40 33
c-23 17 -44 32 -48 32 -3 0 -3 -17 1 -37z"/>
<path d="M3495 2910 c10 -11 20 -20 23 -20 3 0 -3 9 -13 20 -10 11 -20 20 -23
20 -3 0 3 -9 13 -20z"/>
<path d="M1271 2684 c1 -16 5 -40 9 -54 6 -17 7 -9 3 25 -6 56 -14 74 -12 29z"/>
<path d="M3480 2672 c0 -5 7 -16 16 -23 14 -12 16 -11 13 5 -4 20 -29 35 -29
18z"/>
<path d="M1556 2095 c-8 -23 7 -56 22 -46 10 6 10 14 3 34 -12 31 -17 33 -25
12z"/>
<path d="M2030 2100 c-12 -8 -9 -10 13 -10 16 0 26 4 22 10 -8 12 -16 12 -35
0z"/>
<path d="M2425 1940 c-16 -4 -48 -8 -70 -9 -22 0 -51 -8 -64 -17 -14 -10 -26
-13 -30 -7 -7 11 -81 12 -81 1 0 -5 5 -8 10 -8 22 0 8 -17 -25 -29 -29 -10
-35 -17 -35 -40 0 -41 34 -56 148 -62 12 -1 22 -5 22 -10 0 -5 11 -9 25 -9 16
0 25 6 25 15 0 11 7 14 24 9 27 -6 134 13 153 28 7 5 17 7 23 3 17 -11 45 35
45 75 0 34 -2 36 -55 52 -59 19 -69 20 -115 8z"/>
<path d="M3407 1533 c-13 -12 -7 -31 10 -29 26 2 91 -281 105 -461 13 -161 18
-130 -75 -463 -36 -129 -78 -300 -93 -380 -15 -80 -34 -152 -41 -161 -7 -8
-13 -21 -13 -27 0 -9 221 -12 910 -12 l910 0 0 203 0 202 -73 24 c-270 88
-993 395 -1130 478 -41 26 -239 283 -265 343 -57 139 -90 185 -179 251 -56 42
-56 42 -66 32z"/>
<path d="M1633 1338 c-27 -46 -63 -105 -78 -133 -32 -57 -163 -232 -191 -256
-47 -40 -163 -100 -281 -144 -70 -26 -218 -84 -328 -127 -110 -44 -265 -102
-345 -130 -188 -64 -317 -113 -356 -137 -28 -17 -31 -24 -37 -87 -4 -38 -7
-126 -7 -196 l0 -128 951 0 951 0 -5 23 c-23 91 -70 334 -82 424 -3 23 -19 77
-35 120 -92 235 -148 641 -111 791 7 29 11 55 9 58 -3 2 -28 -33 -55 -78z"/>
<path d="M3150 1206 c0 -2 7 -9 15 -16 9 -7 15 -8 15 -2 0 5 -7 12 -15 16 -8
3 -15 4 -15 2z"/>
<path d="M2430 449 c-251 -195 -281 -261 -122 -261 36 0 132 -125 132 -173 0
-13 19 -15 124 -15 l124 0 5 28 c4 15 32 62 64 105 86 116 151 217 153 239 0
12 -100 83 -173 123 -53 29 -80 38 -130 40 l-62 4 -115 -90z"/>
<path d="M2950 327 c0 -23 34 -47 50 -36 13 8 11 12 -10 29 -30 23 -40 25 -40
7z"/>
</g>
</svg>
